<?xml version="1.0" standalone="no"?>
<svg xmlns:xlink="http://www.w3.org/1999/xlink" id="wave" style="transform:rotate(180deg); transition: 0.3s" viewBox="0 0 1440 490" version="1.1" xmlns="http://www.w3.org/2000/svg"><defs><linearGradient id="sw-gradient-0" x1="0" x2="0" y1="1" y2="0"><stop stop-color="rgba(243, 106, 62, 1)" offset="0%"/><stop stop-color="rgba(255, 179, 11, 1)" offset="100%"/></linearGradient></defs><path style="transform:translate(0, 0px); opacity:1" fill="url(#sw-gradient-0)" d="M0,147L60,138.8C120,131,240,114,360,138.8C480,163,600,229,720,277.7C840,327,960,359,1080,310.3C1200,261,1320,131,1440,130.7C1560,131,1680,261,1800,302.2C1920,343,2040,294,2160,277.7C2280,261,2400,278,2520,310.3C2640,343,2760,392,2880,351.2C3000,310,3120,180,3240,171.5C3360,163,3480,278,3600,343C3720,408,3840,425,3960,400.2C4080,376,4200,310,4320,310.3C4440,310,4560,376,4680,392C4800,408,4920,376,5040,302.2C5160,229,5280,114,5400,57.2C5520,0,5640,0,5760,49C5880,98,6000,196,6120,261.3C6240,327,6360,359,6480,343C6600,327,6720,261,6840,253.2C6960,245,7080,294,7200,269.5C7320,245,7440,147,7560,163.3C7680,180,7800,310,7920,367.5C8040,425,8160,408,8280,392C8400,376,8520,359,8580,351.2L8640,343L8640,490L8580,490C8520,490,8400,490,8280,490C8160,490,8040,490,7920,490C7800,490,7680,490,7560,490C7440,490,7320,490,7200,490C7080,490,6960,490,6840,490C6720,490,6600,490,6480,490C6360,490,6240,490,6120,490C6000,490,5880,490,5760,490C5640,490,5520,490,5400,490C5280,490,5160,490,5040,490C4920,490,4800,490,4680,490C4560,490,4440,490,4320,490C4200,490,4080,490,3960,490C3840,490,3720,490,3600,490C3480,490,3360,490,3240,490C3120,490,3000,490,2880,490C2760,490,2640,490,2520,490C2400,490,2280,490,2160,490C2040,490,1920,490,1800,490C1680,490,1560,490,1440,490C1320,490,1200,490,1080,490C960,490,840,490,720,490C600,490,480,490,360,490C240,490,120,490,60,490L0,490Z"/><defs><linearGradient id="sw-gradient-1" x1="0" x2="0" y1="1" y2="0"><stop stop-color="rgba(243, 106, 62, 1)" offset="0%"/><stop stop-color="rgba(255, 179, 11, 1)" offset="100%"/></linearGradient></defs><path style="transform:translate(0, 50px); opacity:0.9" fill="url(#sw-gradient-1)" d="M0,294L60,310.3C120,327,240,359,360,343C480,327,600,261,720,204.2C840,147,960,98,1080,65.3C1200,33,1320,16,1440,81.7C1560,147,1680,294,1800,294C1920,294,2040,147,2160,138.8C2280,131,2400,261,2520,310.3C2640,359,2760,327,2880,277.7C3000,229,3120,163,3240,163.3C3360,163,3480,229,3600,228.7C3720,229,3840,163,3960,155.2C4080,147,4200,196,4320,204.2C4440,212,4560,180,4680,212.3C4800,245,4920,343,5040,318.5C5160,294,5280,147,5400,122.5C5520,98,5640,196,5760,253.2C5880,310,6000,327,6120,310.3C6240,294,6360,245,6480,212.3C6600,180,6720,163,6840,196C6960,229,7080,310,7200,326.7C7320,343,7440,294,7560,236.8C7680,180,7800,114,7920,89.8C8040,65,8160,82,8280,138.8C8400,196,8520,294,8580,343L8640,392L8640,490L8580,490C8520,490,8400,490,8280,490C8160,490,8040,490,7920,490C7800,490,7680,490,7560,490C7440,490,7320,490,7200,490C7080,490,6960,490,6840,490C6720,490,6600,490,6480,490C6360,490,6240,490,6120,490C6000,490,5880,490,5760,490C5640,490,5520,490,5400,490C5280,490,5160,490,5040,490C4920,490,4800,490,4680,490C4560,490,4440,490,4320,490C4200,490,4080,490,3960,490C3840,490,3720,490,3600,490C3480,490,3360,490,3240,490C3120,490,3000,490,2880,490C2760,490,2640,490,2520,490C2400,490,2280,490,2160,490C2040,490,1920,490,1800,490C1680,490,1560,490,1440,490C1320,490,1200,490,1080,490C960,490,840,490,720,490C600,490,480,490,360,490C240,490,120,490,60,490L0,490Z"/><defs><linearGradient id="sw-gradient-2" x1="0" x2="0" y1="1" y2="0"><stop stop-color="rgba(243, 106, 62, 1)" offset="0%"/><stop stop-color="rgba(255, 179, 11, 1)" offset="100%"/></linearGradient></defs><path style="transform:translate(0, 100px); opacity:0.8" fill="url(#sw-gradient-2)" d="M0,294L60,253.2C120,212,240,131,360,114.3C480,98,600,147,720,163.3C840,180,960,163,1080,179.7C1200,196,1320,245,1440,228.7C1560,212,1680,131,1800,130.7C1920,131,2040,212,2160,212.3C2280,212,2400,131,2520,81.7C2640,33,2760,16,2880,73.5C3000,131,3120,261,3240,269.5C3360,278,3480,163,3600,98C3720,33,3840,16,3960,8.2C4080,0,4200,0,4320,40.8C4440,82,4560,163,4680,163.3C4800,163,4920,82,5040,49C5160,16,5280,33,5400,49C5520,65,5640,82,5760,114.3C5880,147,6000,196,6120,212.3C6240,229,6360,212,6480,220.5C6600,229,6720,261,6840,277.7C6960,294,7080,294,7200,285.8C7320,278,7440,261,7560,261.3C7680,261,7800,278,7920,261.3C8040,245,8160,196,8280,204.2C8400,212,8520,278,8580,310.3L8640,343L8640,490L8580,490C8520,490,8400,490,8280,490C8160,490,8040,490,7920,490C7800,490,7680,490,7560,490C7440,490,7320,490,7200,490C7080,490,6960,490,6840,490C6720,490,6600,490,6480,490C6360,490,6240,490,6120,490C6000,490,5880,490,5760,490C5640,490,5520,490,5400,490C5280,490,5160,490,5040,490C4920,490,4800,490,4680,490C4560,490,4440,490,4320,490C4200,490,4080,490,3960,490C3840,490,3720,490,3600,490C3480,490,3360,490,3240,490C3120,490,3000,490,2880,490C2760,490,2640,490,2520,490C2400,490,2280,490,2160,490C2040,490,1920,490,1800,490C1680,490,1560,490,1440,490C1320,490,1200,490,1080,490C960,490,840,490,720,490C600,490,480,490,360,490C240,490,120,490,60,490L0,490Z"/></svg>